<svg width="24" height="24" viewBox="0 0 24 24" xmlns="http://www.w3.org/2000/svg">
<path d="M8.42629 21.1771C9.6893 21.6781 11.043 21.9359 12.41 21.9359L22 22V10.2479H14.4519V13.9872H18.0781V18.1806H12.4045C10.7144 18.1331 9.11023 17.457 7.93233 16.2955C6.75443 15.1341 6.09555 13.5789 6.09555 11.9599C6.09555 10.341 6.75443 8.78576 7.93233 7.62434C9.11023 6.46292 10.7144 5.78674 12.4045 5.73932H21.9442V2H12.41C11.043 2 9.6893 2.25783 8.42629 2.75876C7.16329 3.2597 6.0157 3.99394 5.04903 4.91954C4.08237 5.84515 3.31557 6.94401 2.79242 8.15338C2.26926 9.36275 2 10.6589 2 11.9679C2 13.277 2.26926 14.5732 2.79242 15.7825C3.31557 16.9919 4.08237 18.0907 5.04903 19.0164C6.0157 19.942 7.16329 20.6762 8.42629 21.1771Z" />
</svg>
