<svg width="203" height="28" viewBox="0 0 203 28" fill="none" xmlns="http://www.w3.org/2000/svg">
<path d="M115.498 27.9196V26.1049H120.779C120.986 26.1049 121.183 26.0229 121.329 25.8771C121.475 25.7312 121.557 25.5334 121.557 25.3271V24.8345C121.557 24.6283 121.475 24.4305 121.329 24.2846C121.183 24.1387 120.986 24.0568 120.779 24.0568H117.718C117.026 24.0554 116.364 23.7802 115.875 23.2914C115.386 22.8026 115.111 22.14 115.11 21.4488V20.8266C115.114 20.1378 115.391 19.4788 115.88 18.9932C116.368 18.5076 117.029 18.2348 117.718 18.2341H122.833V20.0488H117.718C117.511 20.0488 117.314 20.1308 117.168 20.2766C117.022 20.4225 116.94 20.6203 116.94 20.8266V21.4254C116.94 21.6317 117.022 21.8295 117.168 21.9754C117.314 22.1212 117.511 22.2032 117.718 22.2032H120.779C121.471 22.2046 122.133 22.4798 122.622 22.9686C123.111 23.4574 123.386 24.1199 123.387 24.8112V25.3038C123.386 25.9951 123.111 26.6576 122.622 27.1464C122.133 27.6352 121.471 27.9104 120.779 27.9118L115.498 27.9196ZM74.5634 27.9196V26.1049H79.8468C80.0531 26.1049 80.2509 26.0229 80.3968 25.8771C80.5426 25.7312 80.6246 25.5334 80.6246 25.3271V24.8345C80.6246 24.6283 80.5426 24.4305 80.3968 24.2846C80.2509 24.1387 80.0531 24.0568 79.8468 24.0568H76.7851C76.4408 24.0561 76.1001 23.9874 75.7825 23.8547C75.4648 23.7219 75.1766 23.5277 74.9342 23.2832C74.6919 23.0387 74.5002 22.7487 74.3703 22.4299C74.2404 22.111 74.1747 21.7697 74.1771 21.4254V20.8266C74.1819 20.1378 74.4587 19.4788 74.9472 18.9932C75.4357 18.5076 76.0963 18.2348 76.7851 18.2341H81.8975V20.0488H76.7825C76.5763 20.0488 76.3784 20.1308 76.2326 20.2766C76.0867 20.4225 76.0048 20.6203 76.0048 20.8266V21.4254C76.0048 21.6317 76.0867 21.8295 76.2326 21.9754C76.3784 22.1212 76.5763 22.2032 76.7825 22.2032H79.8468C80.5379 22.2046 81.2002 22.4799 81.6885 22.9687C82.1769 23.4576 82.4516 24.1202 82.4523 24.8112V25.3038C82.4516 25.9948 82.1769 26.6574 81.6885 27.1463C81.2002 27.6351 80.5379 27.9104 79.8468 27.9118L74.5634 27.9196ZM182.947 27.9196V21.778L180.295 26.963H178.519L175.867 21.778V27.9092H173.884V18.2289H176.271L179.406 24.3886L182.55 18.2289H184.927V27.9196H182.947ZM155.347 27.9196V18.2289H162.923V20.0437H157.331V22.1176H162.137V23.9324H157.331V26.1023H163.034V27.917L155.347 27.9196ZM138.647 27.9196V20.0514H135.297V18.2367H143.995V20.0514H140.645V27.917L138.647 27.9196ZM98.3856 27.9196V24.0127L94.0588 18.2289H96.5501L99.3759 22.1617L102.202 18.2289H104.678L100.364 24.0127V27.917L98.3856 27.9196ZM155.137 10.1119V0.421225H159.902C162 0.421225 163.273 1.55932 163.273 3.18999C163.273 4.62881 162.355 5.74098 160.607 5.94319L163.825 10.0911H161.292L158.241 5.98727H157.121L157.105 10.1119H155.137ZM157.121 4.16735H159.902C160.776 4.16735 161.258 3.77589 161.258 3.17962C161.258 2.58335 160.776 2.23077 159.902 2.23077H157.121V4.16735ZM195.142 10.0963V0.40567H197.122V8.27383H202.323V10.0886L195.142 10.0963ZM182.548 10.0963L181.526 7.87977H177.254L176.217 10.0963H174.018L178.449 0.40567H180.313L184.756 10.0963H182.548ZM178.081 6.07541H180.733L179.393 3.02925L178.081 6.07541ZM135.808 10.0963V0.40567H143.383V2.2204H137.789V4.29438H142.598V6.10911H137.789V8.27642H143.492V10.0911L135.808 10.0963ZM121.824 10.0963L116.849 3.8744V10.0963H114.866V0.40567H116.543L121.495 6.61205V0.40567H123.478V10.0963H121.824ZM95.5287 10.0963V0.40567H103.109V2.2204H97.5093V4.29438H102.331V6.10911H97.5093V8.27642H103.213V10.0911L95.5287 10.0963ZM78.4391 10.0808C77.8038 10.0808 77.1748 9.95565 76.5879 9.71254C76.0009 9.46943 75.4677 9.1131 75.0185 8.66389C74.5692 8.21468 74.2129 7.6814 73.9698 7.09448C73.7267 6.50756 73.6016 5.8785 73.6016 5.24323C73.6016 4.60795 73.7267 3.97889 73.9698 3.39197C74.2129 2.80505 74.5692 2.27177 75.0185 1.82256C75.4677 1.37335 76.0009 1.01702 76.5879 0.773907C77.1748 0.530797 77.8038 0.40567 78.4391 0.40567H82.8696V2.2204H78.4365C77.6512 2.24342 76.9057 2.57158 76.3583 3.13522C75.8109 3.69887 75.5048 4.45364 75.5048 5.23934C75.5048 6.02503 75.8109 6.7798 76.3583 7.34345C76.9057 7.9071 77.6512 8.23526 78.4365 8.25827H81.0731V6.22318H79.388V4.40845H82.8956V10.1119L78.4391 10.0808Z" fill="white"/>
<path d="M47.4769 11.5326H38.6366C38.0354 11.5312 37.4592 11.2918 37.0341 10.8667C36.609 10.4416 36.3696 9.8654 36.3682 9.2642V7.53761C36.3696 6.93641 36.609 6.36023 37.0341 5.93512C37.4592 5.51 38.0354 5.27057 38.6366 5.2692H53.3956V0.0168512H40.4643L14.1507 0.00129634C12.3016 -0.0239042 10.4658 0.318543 8.75012 1.00875C7.03443 1.69896 5.47296 2.72317 4.15642 4.02189C2.83987 5.32062 1.79447 6.86799 1.08095 8.57412C0.367431 10.2802 0 12.1111 0 13.9605C0 15.8098 0.367431 17.6407 1.08095 19.3468C1.79447 21.0529 2.83987 22.6003 4.15642 23.899C5.47296 25.1978 7.03443 26.222 8.75012 26.9122C10.4658 27.6024 12.3016 27.9448 14.1507 27.9196L27.0249 27.9585V11.5067H16.9143V16.7616H21.77V22.6699H14.1481C11.8649 22.6305 9.68859 21.6958 8.0879 20.0673C6.4872 18.4387 5.59024 16.2466 5.59024 13.9631C5.59024 11.6795 6.4872 9.4874 8.0879 7.85884C9.68859 6.23028 11.8649 5.29564 14.1481 5.25624H31.4684C31.233 5.99382 31.1132 6.76339 31.1132 7.53761V9.2642C31.1167 11.2571 31.9099 13.1674 33.3191 14.5766C34.7282 15.9858 36.6385 16.7789 38.6314 16.7824H47.4743C48.0753 16.7831 48.6515 17.0219 49.0767 17.4466C49.5019 17.8713 49.7414 18.4472 49.7428 19.0482V20.4818C49.7414 21.083 49.502 21.6592 49.0768 22.0843C48.6517 22.5094 48.0755 22.7489 47.4743 22.7502H30.5403V28H47.4769C49.4709 28 51.3832 27.2079 52.7931 25.798C54.203 24.388 54.9951 22.4758 54.9951 20.4818V19.056C54.9951 17.062 54.203 15.1498 52.7931 13.7398C51.3832 12.3299 49.4709 11.5378 47.4769 11.5378" fill="#FF5722"/>
</svg>
