<svg width="203" height="28" viewBox="0 0 203 28" fill="none" xmlns="http://www.w3.org/2000/svg">
<path d="M115.498 27.9196V26.1049H120.779C120.986 26.1049 121.183 26.0229 121.329 25.8771C121.475 25.7312 121.557 25.5334 121.557 25.3271V24.8346C121.557 24.6283 121.475 24.4305 121.329 24.2846C121.183 24.1388 120.986 24.0568 120.779 24.0568H117.718C117.026 24.0555 116.364 23.7803 115.875 23.2914C115.386 22.8026 115.111 22.1401 115.11 21.4488V20.8266C115.114 20.1378 115.391 19.4789 115.88 18.9933C116.368 18.5077 117.029 18.2348 117.718 18.2341H122.833V20.0489H117.718C117.511 20.0489 117.314 20.1308 117.168 20.2767C117.022 20.4225 116.94 20.6203 116.94 20.8266V21.4255C116.94 21.6317 117.022 21.8296 117.168 21.9754C117.314 22.1213 117.511 22.2032 117.718 22.2032H120.779C121.471 22.2046 122.133 22.4798 122.622 22.9686C123.111 23.4574 123.386 24.12 123.387 24.8112V25.3038C123.386 25.9951 123.111 26.6577 122.622 27.1465C122.133 27.6353 121.471 27.9105 120.779 27.9118L115.498 27.9196ZM74.5634 27.9196V26.1049H79.8468C80.0531 26.1049 80.2509 26.0229 80.3968 25.8771C80.5426 25.7312 80.6246 25.5334 80.6246 25.3271V24.8346C80.6246 24.6283 80.5426 24.4305 80.3968 24.2846C80.2509 24.1388 80.0531 24.0568 79.8468 24.0568H76.7851C76.4408 24.0562 76.1001 23.9875 75.7825 23.8547C75.4648 23.7219 75.1766 23.5277 74.9342 23.2832C74.6919 23.0387 74.5002 22.7487 74.3703 22.4299C74.2404 22.1111 74.1747 21.7697 74.1771 21.4255V20.8266C74.1819 20.1378 74.4587 19.4789 74.9472 18.9933C75.4357 18.5077 76.0963 18.2348 76.7851 18.2341H81.8975V20.0489H76.7825C76.5763 20.0489 76.3784 20.1308 76.2326 20.2767C76.0867 20.4225 76.0048 20.6203 76.0048 20.8266V21.4255C76.0048 21.6317 76.0867 21.8296 76.2326 21.9754C76.3784 22.1213 76.5763 22.2032 76.7825 22.2032H79.8468C80.5379 22.2046 81.2002 22.4799 81.6885 22.9688C82.1769 23.4576 82.4516 24.1202 82.4523 24.8112V25.3038C82.4516 25.9948 82.1769 26.6574 81.6885 27.1463C81.2002 27.6352 80.5379 27.9105 79.8468 27.9118L74.5634 27.9196ZM182.947 27.9196V21.7781L180.295 26.963H178.519L175.867 21.7781V27.9093H173.884V18.229H176.271L179.406 24.3887L182.55 18.229H184.927V27.9196H182.947ZM155.347 27.9196V18.229H162.923V20.0437H157.331V22.1177H162.137V23.9324H157.331V26.1023H163.034V27.917L155.347 27.9196ZM138.647 27.9196V20.0515H135.297V18.2367H143.995V20.0515H140.645V27.917L138.647 27.9196ZM98.3856 27.9196V24.0128L94.0588 18.229H96.5501L99.3759 22.1617L102.202 18.229H104.678L100.364 24.0128V27.917L98.3856 27.9196ZM155.137 10.1119V0.421256H159.902C162 0.421256 163.273 1.55935 163.273 3.19002C163.273 4.62884 162.355 5.74101 160.607 5.94322L163.825 10.0912H161.292L158.241 5.9873H157.121L157.105 10.1119H155.137ZM157.121 4.16738H159.902C160.776 4.16738 161.258 3.77592 161.258 3.17965C161.258 2.58338 160.776 2.2308 159.902 2.2308H157.121V4.16738ZM195.142 10.0964V0.405701H197.122V8.27386H202.323V10.0886L195.142 10.0964ZM182.548 10.0964L181.526 7.8798H177.254L176.217 10.0964H174.018L178.449 0.405701H180.313L184.756 10.0964H182.548ZM178.081 6.07544H180.733L179.393 3.02928L178.081 6.07544ZM135.808 10.0964V0.405701H143.383V2.22043H137.789V4.29441H142.598V6.10914H137.789V8.27645H143.492V10.0912L135.808 10.0964ZM121.824 10.0964L116.849 3.87443V10.0964H114.866V0.405701H116.543L121.495 6.61208V0.405701H123.478V10.0964H121.824ZM95.5287 10.0964V0.405701H103.109V2.22043H97.5093V4.29441H102.331V6.10914H97.5093V8.27645H103.213V10.0912L95.5287 10.0964ZM78.4391 10.0808C77.8038 10.0808 77.1748 9.95568 76.5879 9.71257C76.0009 9.46946 75.4677 9.11313 75.0185 8.66392C74.5692 8.21472 74.2129 7.68143 73.9698 7.09451C73.7267 6.50759 73.6016 5.87853 73.6016 5.24326C73.6016 4.60798 73.7267 3.97892 73.9698 3.392C74.2129 2.80508 74.5692 2.2718 75.0185 1.82259C75.4677 1.37338 76.0009 1.01705 76.5879 0.773938C77.1748 0.530828 77.8038 0.405701 78.4391 0.405701H82.8696V2.22043H78.4365C77.6512 2.24345 76.9057 2.57161 76.3583 3.13526C75.8109 3.6989 75.5048 4.45367 75.5048 5.23937C75.5048 6.02506 75.8109 6.77983 76.3583 7.34348C76.9057 7.90713 77.6512 8.23529 78.4365 8.2583H81.0731V6.22321H79.388V4.40848H82.8956V10.1119L78.4391 10.0808Z" fill="black"/>
<path d="M47.4769 11.5326H38.6366C38.0354 11.5312 37.4592 11.2918 37.0341 10.8667C36.609 10.4416 36.3696 9.8654 36.3682 9.2642V7.53761C36.3696 6.93641 36.609 6.36023 37.0341 5.93512C37.4592 5.51 38.0354 5.27057 38.6366 5.2692H53.3956V0.0168512H40.4643L14.1507 0.00129634C12.3016 -0.0239042 10.4658 0.318543 8.75012 1.00875C7.03443 1.69896 5.47296 2.72317 4.15642 4.02189C2.83987 5.32062 1.79447 6.86799 1.08095 8.57412C0.367431 10.2802 0 12.1111 0 13.9605C0 15.8098 0.367431 17.6407 1.08095 19.3468C1.79447 21.0529 2.83987 22.6003 4.15642 23.899C5.47296 25.1978 7.03443 26.222 8.75012 26.9122C10.4658 27.6024 12.3016 27.9448 14.1507 27.9196L27.0249 27.9585V11.5067H16.9143V16.7616H21.77V22.6699H14.1481C11.8649 22.6305 9.68859 21.6958 8.0879 20.0673C6.4872 18.4387 5.59024 16.2466 5.59024 13.9631C5.59024 11.6795 6.4872 9.4874 8.0879 7.85884C9.68859 6.23028 11.8649 5.29564 14.1481 5.25624H31.4684C31.233 5.99382 31.1132 6.76339 31.1132 7.53761V9.2642C31.1167 11.2571 31.9099 13.1674 33.3191 14.5766C34.7282 15.9858 36.6385 16.7789 38.6314 16.7824H47.4743C48.0753 16.7831 48.6515 17.0219 49.0767 17.4466C49.5019 17.8713 49.7414 18.4472 49.7428 19.0482V20.4818C49.7414 21.083 49.502 21.6592 49.0768 22.0843C48.6517 22.5094 48.0755 22.7489 47.4743 22.7502H30.5403V28H47.4769C49.4709 28 51.3832 27.2079 52.7931 25.798C54.203 24.388 54.9951 22.4758 54.9951 20.4818V19.056C54.9951 17.062 54.203 15.1498 52.7931 13.7398C51.3832 12.3299 49.4709 11.5378 47.4769 11.5378" fill="#FF5722"/>
</svg>
